{"title":"Pacific Rim 2013 V2 CAM REFILTER AUDIO HC ENG SUBS XviD-THC","uid":8722691,"size":1623049343,"categoryP":"video","categoryS":"movies","magnet":"?xt=urn:btih:ea33b336ef35107a239dc62c3f8c0522f5d71a53&amp;dn=Pacific+Rim+2013+V2+CAM+REFILTER+AUDIO+HC+ENG+SUBS+XviD-THC&amp;tr=udp%3A%2F%2Ftracker.openbittorrent.com%3A80&amp;tr=udp%3A%2F%2Fopen.demonii.com%3A1337&amp;tr=udp%3A%2F%2Ftracker.coppersurfer.tk%3A6969&amp;tr=udp%3A%2F%2Fexodus.desync.com%3A6969","seeders":2,"leechers":0,"uploader":"xxxlavalxxx","files":-1,"time":1374450609,"description":"\n\n[url]http://www.imdb.com/title/tt1663662/[/url]\n\n\n\n\n As a war between humankind and monstrous sea creatures wages on, a former pilot and a trainee are paired up to drive a seemingly obsolete special weapon in a desperate effort to save the world from the apocalypse. \n\n\n\n Director:\n Guillermo del Toro \n\n Writers:\n Travis Beacham (screenplay), Guillermo del Toro (screenplay)\n\n Stars:\n Charlie Hunnam, Idris Elba, Rinko Kikuchi \n\n Genres:\n   Action |  Adventure |  Fantasy |  Sci-Fi \n\n Country:\n USA \n\n Language:\n English | Japanese | Cantonese \n\n\nSource: Italian x264 RAVERS MKV...THANKS...[Reencoded Again]\n Audio: A Very Good Friend...THANKS...[REFILTER w/ new Prog.]\n\n &lt;a href=&quot;\nhttp://www.imdb.com/title/tt1663662/&quot; rel=&quot;nofollow&quot; target=&quot;_NEW&quot;&gt;\nhttp://www.imdb.com/title/tt1663662/&lt;/a&gt;\n\n\n Format                           : AVI\n Format/Info                      : Audio Video Interleave\n File size                        : 1.49 GiB\n Duration                         : 2h 2mn\n Overall bit rate                 : 1 749 Kbps\n Writing library                  : VirtualDub build 35390/release\n\n Video\n ID                               : 0\n Format                           : MPEG-4 Visual\n Format profile                   : Advanced Simple@L5\n Format settings, BVOP            : Yes\n Format settings, QPel            : No\n Format settings, GMC             : No warppoints\n Format settings, Matrix          : Default (H.263)\n Muxing mode                      : Packed bitstream\n Codec ID                         : XVID\n Codec ID/Hint                    : XviD\n Duration                         : 2h 2mn\n Bit rate                         : 1 609 Kbps\n Width                            : 720 pixels\n Height                           : 384 pixels\n Display aspect ratio             : 1.875\n Frame rate                       : 29.970 fps\n Color space                      : YUV\n Chroma subsampling               : 4:2:0\n Bit depth                        : 8 bits\n Scan type                        : Progressive\n Bits/(Pixel*Frame)               : 0.194\n Stream size                      : 1.38 GiB (92%)\n Writing library                  : XviD 1.2.1 (UTC 2008-12-04)\n\n Audio\n ID                               : 1\n Format                           : MPEG Audio\n Format version                   : Version 1\n Format profile                   : Layer 3\n Mode                             : Joint stereo\n Mode extension                   : MS Stereo\n Codec ID                         : 55\n Codec ID/Hint                    : MP3\n Duration                         : 2h 2mn\n Bit rate mode                    : Constant\n Bit rate                         : 128 Kbps\n Channel(s)                       : 2 channels\n Sampling rate                    : 48.0 KHz\n Stream size                      : 112 MiB (7%)\n Alignment                        : Split accross interleaves\n Interleave, duration             : 33 ms (1.00 video frame)\n Interleave, preload duration     : 500 ms\n\n Workdone:\n\n We decided to go ahead and redo Video &amp; Audio all over. We started with video and rotated and fix CAM movement in the beginning. Lower contrast, adjusted levels, saturation, HQ smoother, and Resharpen. The main reason for us redoing this was to add subtitles. Never done it before so I had to do some research in how to make an .SRT file. What took the most time was we had to watch the whole movie and get the italian subs/exact time and uses my language text translation to get english subs. Not sure if its perfect...but im sure its good enough.\n\n Audio:\n Well this was another project...LOL. I've been searching the net in finding the best program for cleaning up CAM audio. I found a really nice one and havent master it yet...but spent at least 8 hours getting CAM audio to the best sounding overall. Its still cam... So dont expect it to sound like line and it doesn't look like we getting any this week from sources. Spents around 16 hours on this... and I believe to be the best to date ALL AROUND. So take it or leave\n\n\n\n\nscreens\n\n\n    &lt;a href=&quot;\thttp://addpix.net/viewer.php?file=07807317246964477630.jpg&quot; rel=&quot;nofollow&quot; target=&quot;_NEW&quot;&gt;\thttp://addpix.net/viewer.php?file=07807317246964477630.jpg&lt;/a&gt;\n    &lt;a href=&quot;\thttp://addpix.net/viewer.php?file=19518096336559973936.jpg&quot; rel=&quot;nofollow&quot; target=&quot;_NEW&quot;&gt;\thttp://addpix.net/viewer.php?file=19518096336559973936.jpg&lt;/a&gt;\n    &lt;a href=&quot;\thttp://addpix.net/viewer.php?file=19658788165331661422.jpg&quot; rel=&quot;nofollow&quot; target=&quot;_NEW&quot;&gt;\thttp://addpix.net/viewer.php?file=19658788165331661422.jpg&lt;/a&gt;\n    &lt;a href=&quot;\thttp://addpix.net/viewer.php?file=82278939189212477484.jpg&quot; rel=&quot;nofollow&quot; target=&quot;_NEW&quot;&gt;\thttp://addpix.net/viewer.php?file=82278939189212477484.jpg&lt;/a&gt;\n    &lt;a href=&quot;\thttp://addpix.net/viewer.php?file=11217692792345852419.jpg&quot; rel=&quot;nofollow&quot; target=&quot;_NEW&quot;&gt;\thttp://addpix.net/viewer.php?file=11217692792345852419.jpg&lt;/a&gt;\n\n","torrent":{"xt":"urn:btih:ea33b336ef35107a239dc62c3f8c0522f5d71a53","amp;dn":"Pacific+Rim+2013+V2+CAM+REFILTER+AUDIO+HC+ENG+SUBS+XviD-THC","amp;tr":["udp%3A%2F%2Ftracker.openbittorrent.com%3A80","udp%3A%2F%2Fopen.demonii.com%3A1337","udp%3A%2F%2Ftracker.coppersurfer.tk%3A6969","udp%3A%2F%2Fexodus.desync.com%3A6969"],"infoHash":"ea33b336ef35107a239dc62c3f8c0522f5d71a53","infoHashBuffer":{"type":"Buffer","data":[234,51,179,54,239,53,16,122,35,157,198,44,63,140,5,34,245,215,26,83]},"announce":[],"urlList":[]}}